# xmcd
#
# Track frame offsets:
#	150
#	1811
#	12047
#	13226
#	23343
#	33795
#	52996
#	65523
#	81541
#	92424
#	104171
#	114762
#	125276
#	137317
#
# Disc length: 2001 seconds
# Revision: 0
# Processed by: cddbd v1.5.1PL0 Copyright (c) Steve Scherf et al.
# Submitted via: cdrLabel 7.1
#
DISCID=9907cf0e
DTITLE=Charley Pride  - In Person Recorded Live At Panther Hall
DYEAR=1900
DGENRE=
TTITLE0=Intro By Bo Powell
TTITLE1=The Last Thing On My Mind
TTITLE2=Just Between You And Me
TTITLE3=I Know One
TTITLE4=Dialogue
TTITLE5=Lovesick Blues
TTITLE6=The Image Of Me
TTITLE7=Kaw-Liga
TTITLE8=Shutters And Boards
TTITLE9=Six Days On The Road
TTITLE10=Streets Of Baltimore
TTITLE11=Got Leavin' On Her Mind
TTITLE12=Crystal Chandeliers
TTITLE13=Cotton Fields
EXTD=
EXTT0=
EXTT1=
EXTT2=
EXTT3=
EXTT4=
EXTT5=
EXTT6=
EXTT7=
EXTT8=
EXTT9=
EXTT10=
EXTT11=
EXTT12=
EXTT13=
PLAYORDER=
